<svg width="161" height="161" xmlns="http://www.w3.org/2000/svg" fill="none">

 <g>
  <title>Layer 1</title>
  <g stroke="null" id="svg_6">
   <path stroke="null" id="svg_1" fill="#8D98FF" d="m158.94031,47.62119c-39.68243,-39.68243 -97.56863,-55.10501 -151.75238,-40.43309c-14.67192,54.16669 0.75066,112.05254 40.43309,151.75203l0.30709,0.30709c54.25233,-14.70604 96.61324,-57.06695 111.31929,-111.31895l-0.30709,-0.30709z"/>
   <path stroke="null" id="svg_2" fill="#7A8AFF" d="m159.26446,47.92827l-43.93047,11.90814c-27.00674,7.3189 -55.85584,-0.37533 -75.64587,-20.1483l-32.48295,-32.48295c54.18375,-14.68898 112.06977,0.75066 151.75221,40.43309l0.30709,0.30709l0,-0.01706z"/>
   <path stroke="null" id="svg_3" fill="#607FFF" d="m159.26446,47.92827c-14.70604,54.25199 -57.06695,96.6129 -111.31929,111.31895l12.0105,-44.35697c7.25066,-26.78479 28.16668,-47.70081 54.95181,-54.95147l44.35697,-12.02756l0,0.01706z"/>
   <path stroke="null" id="svg_4" fill="#A6A8FF" d="m59.83625,115.33381l-11.90814,43.93047l-0.30709,-0.30709c-39.68243,-39.68243 -55.10501,-97.56828 -40.43309,-151.75203l32.48295,32.48295c19.79003,19.79003 27.4672,48.63913 20.1483,75.6457l0.01706,0z"/>
  </g>
 </g>
</svg>